<svg width="187" height="187" viewBox="0 0 187 187" fill="none" xmlns="http://www.w3.org/2000/svg">
<g clip-path="url(#clip0_1_2)">
<circle cx="93.5" cy="93.5" r="93.5" fill="#0057B7"/>
<path d="M122.588 80.238C116.22 79.108 114.878 84.24 114.878 84.24C114.878 84.24 115.13 77.432 108.326 75.932C102.352 74.614 100.366 80.568 100.366 80.568C100.366 80.568 100.776 73.206 93.954 72.846C87.692 72.516 86.952 78.536 86.952 78.536C86.82 77.574 83.14 45.74 82.962 44.538C82.478 41.298 79.428 39.87 77.53 39.84C75.08 39.802 72.384 42.31 72.422 45.072C72.43 45.75 72.344 86.72 72.308 103.584C70.246 98.956 66.242 92.08 60 90C54 88 50 92 50 92C62 114 68.034 134.048 86 142L85.74 141.264C85.918 141.382 86.08 141.504 86.262 141.62L121.67 134.812C121.67 134.812 124.922 128.356 126.634 119.58C128.376 110.646 128.808 101.534 128.706 97.208C128.546 90.528 127.952 81.19 122.588 80.238Z" fill="white"/>
</g>
<defs>
<clipPath id="clip0_1_2">
<rect width="187" height="187" fill="white"/>
</clipPath>
</defs>
</svg>
